<mxfile host="app.diagrams.net" modified="2023-10-25T08:19:19.632Z" agent="Mozilla/5.0 (Macintosh; Intel Mac OS X 10_15_7) AppleWebKit/537.36 (KHTML, like Gecko) Chrome/116.0.0.0 Safari/537.36" version="22.0.7" etag="BM0a0q3rHJlL_WZ545I7" type="github">
  <diagram name="第 1 页" id="zDhUZW4PNOVpB32XowWm">
    <mxGraphModel>
      <root>
        <mxCell id="0" />
        <mxCell id="1" parent="0" />
      </root>
    </mxGraphModel>
  </diagram>
</mxfile>
